<svg version="1.2" baseProfile="tiny-ps" xmlns="http://www.w3.org/2000/svg" viewBox="0 0 1035 832" width="1035" height="832">
	<title>contactMailDark-svg</title>
	<defs>
		<linearGradient id="grd1" gradientUnits="userSpaceOnUse"  x1="841.96" y1="802.42" x2="841.96" y2="182.85">
			<stop offset="0" stop-color="#808080" stop-opacity="0.25" />
			<stop offset="0.54" stop-color="#808080" stop-opacity="0.12" />
			<stop offset="1" stop-color="#808080" stop-opacity="0.1" />
		</linearGradient>
	</defs>
	<style>
		tspan { white-space:pre }
		.shp0 { opacity: 0.102;fill: #6c63ff } 
		.shp1 { fill: none;stroke: #535461;stroke-width: 2 } 
		.shp2 { fill: #6c63ff } 
		.shp3 { opacity: 0.251;fill: #000000 } 
		.shp4 { fill: url(#grd1) } 
		.shp5 { fill: #65617d } 
		.shp6 { opacity: 0.102;fill: #000000 } 
		.shp7 { fill: #fbbebe } 
		.shp8 { fill: #e7effd } 
		.shp9 { fill: #3f3d56 } 
		.shp10 { fill: #5f5d7e } 
		.shp11 { fill: #cfbf73 } 
		.shp12 { fill: #000000 } 
		.shp13 { fill: #e6e8ec } 
		.shp14 { fill: #dcdfed } 
		.shp15 { fill: #e3e5f1 } 
	</style>
	<path id="Layer" class="shp0" d="M601.31 95.07C534.96 93.16 471.77 75.32 411.47 55.8C351.17 36.28 291.31 14.69 226.55 4.35C184.9 -2.3 137.27 -3.24 103.71 15.35C71.41 33.24 60.98 64.13 55.37 92.8C51.14 114.36 48.66 137.06 60.23 157.24C68.23 171.24 82.52 183.03 92.38 196.45C126.68 243.16 102.44 300.75 65.26 346.35C47.82 367.74 27.59 388.15 14.13 410.92C0.67 433.69 -5.53 459.8 6.22 483C17.89 506 45.7 523.31 75.83 535.48C137.02 560.18 209.13 567.25 279.44 571.26C435.08 580.12 591.56 576.26 747.62 572.44C805.37 571.02 863.38 569.58 920.2 562.14C951.75 558.01 984.32 551.46 1007.2 535.64C1036.28 515.56 1043.48 481.55 1024 456.37C991.32 414.13 901 403.64 878.11 358.31C865.53 333.36 878.45 305.56 896.72 282.42C935.92 232.78 1001.63 189.23 1005.09 132.49C1007.46 93.49 975.88 54.49 927.04 36.05C875.85 16.72 804.86 19.15 767.04 51.15C728.23 84.09 659.89 96.8 601.31 95.07Z" />
	<path id="Layer" class="shp0" d="M435.45 831.61C274.67 831.61 144.7 818.5 144.7 802.29C144.7 786.08 274.67 772.97 435.45 772.97C596.23 772.97 726.2 786.08 726.2 802.29C726.2 818.5 596.23 831.61 435.45 831.61Z" />
	<path id="Layer" class="shp1" d="M169.47 799.11C169.47 799.11 156.57 726.02 108.69 689.8C88.6 674.6 73.9 653.93 67.48 630.39C66.73 627.6 66.04 624.8 65.42 621.98C64.8 619.16 64.25 616.33 63.77 613.48C63.28 610.63 62.87 607.78 62.53 604.91C62.18 602.04 61.91 599.17 61.7 596.29" />
	<path id="Layer" class="shp2" d="M31.68 573.29C35.68 581.12 62.41 596.97 62.41 596.97C62.41 596.97 65.77 567.36 61.74 559.52C57.71 551.68 47.74 548.41 39.42 552.21C31.1 556.01 27.65 565.45 31.68 573.29Z" />
	<path id="Layer" class="shp2" d="M29.13 628.08C37.03 632.59 68.57 632.19 68.57 632.19C68.57 632.19 54.34 605.61 46.47 601.1C38.6 596.59 28.31 598.97 23.53 606.42C18.75 613.87 21.24 623.57 29.13 628.08Z" />
	<path id="Layer" class="shp2" d="M68.34 701.8C77.56 701.93 104.57 686.55 104.57 686.55C104.57 686.55 78.08 670.39 68.85 670.25C59.62 670.11 52.03 677.07 51.85 685.78C51.67 694.49 59.11 701.64 68.34 701.8Z" />
	<path id="Layer" class="shp2" d="M111.3 751.23C120.36 752.84 149.74 741.98 149.74 741.98C149.74 741.98 126.52 721.8 117.47 720.22C108.42 718.64 99.67 724.22 97.97 732.82C96.27 741.42 102.23 749.63 111.3 751.23Z" />
	<path id="Layer" class="shp2" d="M100.91 619.25C97.76 627.44 72.91 645.8 72.91 645.8C72.91 645.8 66.33 616.68 69.48 608.49C72.63 600.3 82.22 596.07 90.89 599.04C99.56 602.01 104.06 611.07 100.91 619.25Z" />
	<path id="Layer" class="shp2" d="M150.38 677.69C144.78 684.62 115.26 695.12 115.26 695.12C115.26 695.12 118.26 665.47 123.82 658.55C125.21 656.89 126.9 655.5 128.81 654.46C130.71 653.41 132.79 652.74 134.94 652.46C137.09 652.19 139.28 652.32 141.38 652.84C143.49 653.37 145.47 654.29 147.24 655.55C148.97 656.74 150.43 658.28 151.54 660.07C152.65 661.85 153.37 663.85 153.66 665.93C153.96 668.01 153.82 670.13 153.25 672.16C152.69 674.18 151.71 676.06 150.38 677.69Z" />
	<path id="Layer" class="shp2" d="M190.2 740.72C185.92 748.44 158.71 763.5 158.71 763.5C158.71 763.5 156.32 733.81 160.6 726.09C164.88 718.37 174.97 715.39 183.15 719.43C191.33 723.47 194.47 733 190.2 740.72Z" />
	<path id="Layer" class="shp3" d="M31.68 573.29C35.68 581.12 62.41 596.97 62.41 596.97C62.41 596.97 65.77 567.36 61.74 559.52C57.71 551.68 47.74 548.41 39.42 552.21C31.1 556.01 27.65 565.45 31.68 573.29Z" />
	<path id="Layer" class="shp3" d="M29.13 628.08C37.03 632.59 68.57 632.19 68.57 632.19C68.57 632.19 54.34 605.61 46.47 601.1C38.6 596.59 28.31 598.97 23.53 606.42C18.75 613.87 21.24 623.57 29.13 628.08Z" />
	<path id="Layer" class="shp3" d="M68.34 701.8C77.56 701.93 104.57 686.55 104.57 686.55C104.57 686.55 78.08 670.39 68.85 670.25C59.62 670.11 52.03 677.07 51.85 685.78C51.67 694.49 59.11 701.64 68.34 701.8Z" />
	<path id="Layer" class="shp3" d="M111.3 751.23C120.36 752.84 149.74 741.98 149.74 741.98C149.74 741.98 126.52 721.8 117.47 720.22C108.42 718.64 99.67 724.22 97.97 732.82C96.27 741.42 102.23 749.63 111.3 751.23Z" />
	<path id="Layer" class="shp3" d="M100.91 619.25C97.76 627.44 72.91 645.8 72.91 645.8C72.91 645.8 66.33 616.68 69.48 608.49C72.63 600.3 82.22 596.07 90.89 599.04C99.56 602.01 104.06 611.07 100.91 619.25Z" />
	<path id="Layer" class="shp3" d="M150.38 677.69C144.78 684.62 115.26 695.12 115.26 695.12C115.26 695.12 118.26 665.47 123.82 658.55C125.21 656.89 126.9 655.5 128.81 654.46C130.71 653.41 132.79 652.74 134.94 652.46C137.09 652.19 139.28 652.32 141.38 652.84C143.49 653.37 145.47 654.29 147.24 655.55C148.97 656.74 150.43 658.28 151.54 660.07C152.65 661.85 153.37 663.85 153.66 665.93C153.96 668.01 153.82 670.13 153.25 672.16C152.69 674.18 151.71 676.06 150.38 677.69Z" />
	<path id="Layer" class="shp3" d="M190.2 740.72C185.92 748.44 158.71 763.5 158.71 763.5C158.71 763.5 156.32 733.81 160.6 726.09C164.88 718.37 174.97 715.39 183.15 719.43C191.33 723.47 194.47 733 190.2 740.72Z" />
	<path id="Layer" class="shp1" d="M167.85 797.19C167.85 797.19 187.42 725.43 159.2 673.99C147.36 652.41 142.79 627.89 147.03 603.91C147.54 601.06 148.12 598.23 148.76 595.41C149.41 592.59 150.12 589.78 150.9 586.99C151.68 584.21 152.53 581.44 153.44 578.7C154.36 575.95 155.33 573.23 156.38 570.53" />
	<path id="Layer" class="shp2" d="M138.8 538.02C139.12 546.72 156.73 571.43 156.73 571.43C156.73 571.43 172.51 545.64 172.19 536.93C171.87 528.22 164.14 521.41 154.92 521.71C145.7 522.01 138.47 529.31 138.8 538.02Z" />
	<path id="Layer" class="shp2" d="M112.96 587.14C118.24 594.28 147.24 605.98 147.24 605.98C147.24 605.98 145.64 576.24 140.36 569.09C139.04 567.37 137.4 565.92 135.54 564.81C133.69 563.69 131.63 562.93 129.5 562.57C127.36 562.22 125.17 562.26 123.05 562.71C120.93 563.15 118.91 563.99 117.1 565.18C115.32 566.3 113.8 567.77 112.61 569.5C111.43 571.23 110.62 573.19 110.23 575.26C109.85 577.32 109.89 579.44 110.36 581.48C110.82 583.53 111.71 585.45 112.96 587.14L112.96 587.14Z" />
	<path id="Layer" class="shp2" d="M117.16 669.51C125.54 673.16 156.84 669.44 156.84 669.44C156.84 669.44 139.55 644.52 131.17 640.87C122.79 637.22 112.87 640.67 109 648.58C105.13 656.49 108.79 665.86 117.16 669.51Z" />
	<path id="Layer" class="shp2" d="M135.21 731.16C142.82 736.1 174.33 737.41 174.33 737.41C174.33 737.41 161.75 710.1 154.15 705.17C152.33 703.99 150.31 703.16 148.19 702.72C146.07 702.28 143.89 702.24 141.75 702.61C139.62 702.98 137.57 703.74 135.71 704.87C133.86 705.99 132.24 707.45 130.92 709.17C129.67 710.87 128.79 712.8 128.33 714.86C127.87 716.91 127.84 719.04 128.24 721.11C128.65 723.17 129.47 725.13 130.67 726.86C131.87 728.59 133.42 730.06 135.21 731.16Z" />
	<path id="Layer" class="shp2" d="M182.37 606.53C175.97 612.81 145.37 620.1 145.37 620.1C145.37 620.1 151.86 590.95 158.25 584.67C159.82 583.17 161.65 581.97 163.66 581.14C165.66 580.32 167.81 579.87 169.98 579.83C172.15 579.79 174.31 580.15 176.34 580.91C178.38 581.66 180.26 582.79 181.88 584.23C183.45 585.62 184.72 587.31 185.61 589.21C186.49 591.11 186.97 593.18 187.02 595.27C187.06 597.37 186.67 599.45 185.87 601.39C185.07 603.33 183.88 605.08 182.37 606.53Z" />
	<path id="Layer" class="shp2" d="M202.47 678.88C194.38 683.07 162.89 681.38 162.89 681.38C162.89 681.38 178.32 655.38 186.41 651.22C194.5 647.06 204.66 649.83 209.09 657.47C213.52 665.11 210.6 674.69 202.47 678.88Z" />
	<path id="Layer" class="shp2" d="M211.86 751.74C204.63 757.16 173.29 760.52 173.29 760.52C173.29 760.52 183.85 732.45 191.08 727.03C192.82 725.74 194.79 724.78 196.88 724.21C198.98 723.65 201.16 723.47 203.31 723.71C205.47 723.94 207.56 724.58 209.49 725.58C211.41 726.59 213.13 727.94 214.55 729.58C215.91 731.18 216.92 733.04 217.52 735.05C218.13 737.06 218.31 739.17 218.06 741.25C217.8 743.33 217.12 745.34 216.06 747.14C214.99 748.95 213.56 750.51 211.86 751.74Z" />
	<path id="Layer" fill-rule="evenodd" class="shp4" d="M995.31 389.71C994.97 390.31 994.64 390.92 994.32 391.53C994 392.14 993.69 392.76 993.39 393.38C993.08 394 992.79 394.62 992.51 395.26C992.23 395.89 991.96 396.52 991.7 397.16C991.7 397.16 984.64 410.57 981.04 413.11C977.44 415.65 960.93 436.96 960.93 436.96C960.93 436.96 943.22 457.24 943.22 463.5C943.22 463.5 942.22 461.84 940.57 459.35L943.21 504.05C943.21 504.05 937.06 509.26 935.71 509.86C929.41 514.18 918.75 507.33 917.1 505.98C916.23 505.26 910.33 505.45 905.1 505.78C906.26 529.97 901.35 534.61 901.35 534.61L900.76 555.61C900.76 555.61 901.52 587.67 899.26 592.73C897 597.79 897 618.22 897 618.22C897 618.22 898.5 627.9 896.85 629.99C895.2 632.08 896.41 639.85 897.61 643.85C898.81 647.85 897.75 657.85 897.75 657.85L897.45 714.2C897.45 714.2 895.81 728.8 893.7 730.9C893.4 731.21 893.14 731.55 892.93 731.93C892.72 732.3 892.56 732.7 892.45 733.12C892.35 733.53 892.3 733.96 892.31 734.39C892.31 734.82 892.38 735.25 892.5 735.66C892.5 735.66 890.7 744 891.15 745.5C891.6 747 892.51 750.42 889.05 752.06C885.59 753.7 886.58 758.94 886.49 758.92C886.4 758.9 886.31 758.88 886.21 758.86C886.12 758.84 886.03 758.82 885.94 758.81C885.85 758.79 885.75 758.77 885.66 758.76C885.57 758.75 885.47 758.73 885.38 758.72C885.48 759.33 885.6 759.96 885.74 760.56C885.78 760.84 885.84 761.11 885.91 761.39C885.99 761.66 886.07 761.93 886.17 762.19C886.27 762.45 886.39 762.71 886.52 762.96C886.64 763.21 886.79 763.45 886.94 763.69C888.45 765.33 889.35 772.63 889.35 772.63C889.35 772.63 894.75 783.36 894.15 785.75C893.71 787.53 893.17 790.73 892.92 792.24C892.8 792.75 892.8 793.06 892.8 793.06C892.8 793.06 889.8 799.62 873.14 802C856.48 804.38 856.48 796.48 856.48 796.48C856.48 796.48 856.54 795.63 856.65 794.36C856.98 790.87 857.54 784.19 857.98 782.77C858.53 780.83 857.53 772.33 857.53 772.33L857.35 763.45L857.35 761.68C855.8 761.99 855.5 763.5 854.87 762.2C854.24 760.9 853.62 759.6 853.03 758.28C852.44 756.96 851.87 755.64 851.32 754.3C850.76 752.97 850.23 751.63 849.73 750.28C849.22 748.92 848.73 747.57 848.26 746.2C847.86 745.09 847.7 743.92 847.79 742.74C847.88 741.57 848.23 740.43 848.79 739.4C849.36 738.37 850.14 737.48 851.09 736.78C852.03 736.07 853.11 735.58 854.26 735.33C857.42 734.85 852.01 729.33 852.01 729.33C852.01 729.33 852.61 728.58 851.11 723.22C849.61 717.86 851.41 704.14 851.86 700.56C852.31 696.98 854.56 679.69 854.56 679.69C854.56 679.69 853.36 657.77 854.26 656.88C855.16 655.99 858.18 647.34 856.67 644.51C855.16 641.68 852.76 623.05 852.76 622C852.76 620.95 850.81 596.8 850.81 596.8C850.81 596.8 849.03 580.05 849.48 576.47C849.93 572.89 848.28 559.62 848.28 559.62C848.28 548.55 841.83 536.62 841.83 536.62L841.67 537.05L827.67 573.45C827.67 573.45 825.47 584.48 823.47 590.74C823.16 591.81 822.86 592.88 822.58 593.96C822.3 595.04 822.04 596.12 821.79 597.2C821.54 598.29 821.31 599.37 821.1 600.47C820.88 601.56 820.68 602.65 820.5 603.75L820.37 604.54C820.31 604.88 820.23 605.16 820.23 605.39L820.14 605.98C820.14 605.98 821.19 613.89 819.54 616.42C817.89 618.95 816.09 626.55 816.09 628.64C816.09 630.73 816.23 638.78 816.23 638.78C816.23 638.78 816.89 654.73 815.23 656.52C813.57 658.31 814.47 659.8 814.47 659.8C814.47 659.8 817.11 671.8 815.91 674.93C814.71 678.06 815.61 685.36 815.61 685.36C815.61 685.36 813.22 708.47 812.91 709.66C812.6 710.85 810.94 720.11 812.75 720.85C814.56 721.59 818 726.06 818 726.06C818 726.06 818.76 745.57 816.06 747.06C813.36 748.55 814.85 756.16 814.85 756.16L813.7 756.37C813.81 756.92 813.93 757.51 814.03 758.1C814.14 758.54 814.23 758.98 814.3 759.42C814.38 759.87 814.44 760.31 814.48 760.76C814.53 761.21 814.56 761.66 814.57 762.11C814.58 762.56 814.58 763.01 814.56 763.46C814.51 763.79 814.5 764.12 814.52 764.45C814.55 764.78 814.6 765.11 814.69 765.43C814.78 765.75 814.91 766.06 815.06 766.35C815.21 766.65 815.4 766.92 815.61 767.18L816.28 773.27L816.51 775.39C816.51 775.39 803.91 783.58 797.6 782.39C791.29 781.2 785.91 783.31 784.83 784.48C783.75 785.65 782.59 786.76 781.37 787.79C780.15 788.81 778.87 789.76 777.53 790.63C776.19 791.5 774.79 792.28 773.35 792.97C771.91 793.66 770.43 794.26 768.92 794.77C758.71 798.17 744.46 796.85 736.35 794.17C732.51 792.9 732.21 791.24 734.06 789.24C736.11 786.99 740.81 784.27 746.26 781.05C756.62 774.94 767.72 762.86 767.72 762.86C767.72 762.86 767.91 759.88 769.72 758.54C769.99 758.3 770.26 758.06 770.52 757.81C770.79 757.56 771.04 757.3 771.29 757.04C771.54 756.78 771.79 756.51 772.03 756.24C772.26 755.96 772.5 755.68 772.72 755.4L773.59 754.4L772.59 754.25L774.09 749.35C774 749.52 773.01 751.11 772.29 745.01C771.55 738.6 777.85 741.73 777.85 741.73C777.85 741.73 782.8 742.94 774.85 735.18C766.9 727.42 770.75 719.52 771.25 719.52C771.75 719.52 772.75 708.05 772.75 708.05C772.75 708.05 774.09 701.19 773.05 695.82C772.01 690.45 771.11 673.76 771.11 673.76C771.11 673.76 771.85 661.1 770.5 656.47C769.15 651.84 771.4 643.5 771.85 641.56C772.3 639.62 770.5 621.88 770.5 621.88C770.5 621.88 772.01 613.55 771.11 607.43C770.21 601.31 772.01 578.8 772.01 578.8L774.8 552.94C774.8 552.94 776.75 544.89 776.45 541.61C776.15 538.33 778.74 527.46 778.7 526.85C778.66 526.24 778.66 525.63 778.69 525.02C778.72 524.41 778.79 523.81 778.89 523.21C778.99 522.61 779.13 522.01 779.3 521.42C779.46 520.84 779.67 520.26 779.9 519.7C780.05 519.33 780.19 518.95 780.32 518.57C780.44 518.19 780.56 517.81 780.66 517.42C780.76 517.03 780.85 516.64 780.92 516.25C781 515.85 781.06 515.46 781.11 515.06C776.78 511.85 774.2 506.13 774.2 506.13C774.12 505.99 774.04 505.85 773.96 505.7C773.88 505.56 773.8 505.41 773.72 505.27C773.65 505.12 773.57 504.97 773.5 504.83C773.43 504.68 773.36 504.53 773.29 504.38L775.69 494.25C775.69 494.25 775.84 480.23 777.34 477.55C778.84 474.87 779.74 467.12 779.74 467.12C779.74 467.12 782.5 450.04 782.98 446.36C782.85 446.34 782.72 446.32 782.58 446.31C782.45 446.29 782.32 446.29 782.19 446.29C782.05 446.29 781.92 446.29 781.79 446.31C781.65 446.32 781.52 446.34 781.39 446.36C781.39 446.36 781.53 445.66 781.77 444.49C781.66 444.48 781.56 444.48 781.45 444.48C781.34 444.48 781.23 444.48 781.13 444.49C781.02 444.49 780.91 444.5 780.81 444.52C780.7 444.53 780.6 444.55 780.49 444.57C780.49 444.57 786.95 412.19 790.4 404.91C793.85 397.63 793.25 377.63 793.25 377.63C793.25 377.63 786.49 379.72 786.19 381.51C785.89 383.3 777.19 395.37 777.19 395.37C777.19 395.37 775.2 402.68 766.19 407.45C757.18 412.22 747.28 406.55 745.78 404.62C744.43 402.87 718.18 391.36 712.92 389.07L712 388.67L712.06 388.36C712.06 388.31 712.06 388.25 712.06 388.2L711.06 387.78L712.06 388.09C712.2 387.45 712.48 386.3 712.9 384.8C712.98 384.71 712.93 384.68 712.98 384.52C713.03 384.36 713.04 384.29 713.12 384.03C713.2 383.77 713.29 383.49 713.37 383.21L713.46 382.91C713.55 382.63 713.65 382.35 713.74 382.05C713.79 382.01 713.79 381.92 713.79 381.92C714.24 380.54 714.79 379.03 715.44 377.47L711.58 372.47L711.12 372.13L693.17 355.36C691.59 353.89 690.33 352.1 689.47 350.12C688.62 348.14 688.18 346 688.19 343.84C688.2 341.68 688.66 339.54 689.53 337.57C690.41 335.59 691.69 333.82 693.28 332.36C695.2 330.59 695.92 333.42 696.07 333.71C707.33 335.09 726.5 353.09 726.5 353.09L728.86 355.71L729.74 356.71C729.79 356.51 729.82 356.31 729.83 356.1C729.85 355.9 729.84 355.69 729.82 355.49C729.8 355.29 729.77 355.08 729.71 354.89C729.66 354.69 729.59 354.5 729.5 354.31C728.96 353.51 732.72 357.01 734.5 358.69C734.5 358.69 734.5 358.68 734.5 358.68C734.5 358.67 734.5 358.67 734.5 358.66C734.5 358.65 734.5 358.65 734.5 358.64C734.5 358.64 734.5 358.63 734.5 358.63C734.5 358.64 734.51 358.65 734.52 358.66C734.52 358.67 734.53 358.68 734.53 358.69C734.54 358.7 734.54 358.71 734.55 358.72C734.56 358.73 734.56 358.74 734.57 358.75L735.4 359.53C738.1 364.3 749.96 366.98 749.96 366.98L755.06 363.85C755.51 358.04 763.77 351.18 763.77 351.18C763.77 351.18 766.21 348.49 767.52 342.68C768.83 336.87 773.83 337.61 773.83 337.61L774.43 329.12C774.43 329.12 778.88 326.72 778.43 321.96C777.98 317.2 783.23 307.96 783.23 307.96C783.23 307.96 785.59 307.07 786.08 297.67C786.57 288.27 791.08 287.67 791.08 287.67L803.84 286.93C804.89 283.35 832.21 279.03 832.21 279.03C832.21 279.03 837.01 277.23 839.56 273.36C842.11 269.49 844.82 270.83 844.82 270.83L845.22 271.22C845.19 270.95 845.16 270.76 845.12 270.41C845.08 270.06 844.99 269.73 844.99 269.41C842.05 267.95 839.33 266.09 836.9 263.88C834.48 261.68 832.37 259.14 830.64 256.35C828.91 253.57 827.57 250.55 826.67 247.4C825.77 244.24 825.31 240.98 825.3 237.7C825.3 237.53 825.3 237.49 825.3 237.19C825.3 236.89 825.3 236.58 825.3 236.28C825.06 236.39 824.81 236.5 824.57 236.61C824.32 236.71 824.07 236.81 823.82 236.9C823.57 236.99 823.32 237.08 823.07 237.16C822.81 237.24 822.56 237.32 822.3 237.39C822.05 237.46 821.79 237.52 821.54 237.57C821.29 237.62 821.04 237.67 820.78 237.71C820.53 237.74 820.27 237.77 820.02 237.79C819.76 237.81 819.51 237.82 819.25 237.83C818.99 237.83 818.74 237.82 818.48 237.81C818.22 237.79 817.97 237.73 817.72 237.73C817.61 237.71 817.5 237.7 817.39 237.68C817.28 237.66 817.17 237.64 817.06 237.61C816.95 237.59 816.84 237.56 816.73 237.53C816.62 237.5 816.52 237.47 816.41 237.44L816.2 237.39C816.35 236.91 816.52 236.45 816.69 235.99C817.06 234.98 817.48 233.99 817.95 233.03C818.42 232.06 818.94 231.12 819.51 230.21C820.08 229.3 820.69 228.42 821.35 227.57C822.01 226.73 822.72 225.91 823.46 225.14C823.63 224.99 823.8 224.83 823.96 224.66C824.11 224.49 824.26 224.32 824.4 224.13C824.54 223.95 824.67 223.76 824.8 223.56C824.92 223.37 825.03 223.17 825.13 222.96C825.2 222.78 825.25 222.59 825.29 222.4C825.33 222.21 825.36 222.02 825.37 221.82C825.38 221.63 825.37 221.44 825.36 221.24C825.34 221.05 825.31 220.86 825.26 220.67C825.18 220.37 825.08 220.07 824.98 219.78C824.88 219.48 824.77 219.19 824.66 218.9C824.54 218.61 824.42 218.33 824.29 218.05C824.16 217.76 824.02 217.48 823.87 217.21L823.75 216.93L823.6 216.59C823.51 216.36 823.42 216.14 823.34 215.91C823.34 215.9 823.34 215.89 823.34 215.88C823.34 215.87 823.34 215.86 823.34 215.85C823.34 215.84 823.34 215.83 823.34 215.82C823.34 215.81 823.34 215.8 823.34 215.79C823.27 215.58 823.15 215.24 823.15 215.17C823.15 215.1 823.15 215.03 823.15 214.96C823.14 214.9 823.12 214.84 823.11 214.77C823.1 214.71 823.08 214.65 823.07 214.59C823.06 214.52 823.05 214.46 823.04 214.4C823.04 214.34 823.03 214.27 823.02 214.21C823.01 214.14 823.01 214.08 823.01 214.01C823.01 213.94 823 213.88 823 213.81C823 213.74 823.01 213.68 823.01 213.61C823.01 213.54 823.01 213.48 823.02 213.41C823.02 213.31 823 213.25 823.02 213.1C823.04 212.95 823.07 212.78 823.1 212.65C823.13 212.52 823.17 212.38 823.2 212.27C823.23 212.16 823.3 212.06 823.3 211.95C823.44 211.58 823.61 211.22 823.8 210.87C823.99 210.53 824.2 210.19 824.43 209.87C824.67 209.55 824.92 209.25 825.2 208.96C825.47 208.68 825.76 208.41 826.07 208.16C827.84 206.69 829.93 205.67 831.6 204.08C835.59 200.29 836.76 193.8 841.01 190.35C844.7 187.35 849.78 187.4 854.37 188.04C858.96 188.68 863.7 189.74 868.14 188.33C871.45 187.27 874.28 184.91 877.55 183.7C884.39 181.15 892.71 184.54 896.24 191.32C898.35 195.4 898.8 200.16 900.53 204.4C901.67 207.2 903.34 209.72 904.47 212.52C904.79 213.35 905.07 214.2 905.3 215.07C905.52 215.93 905.7 216.8 905.82 217.69C905.95 218.57 906.02 219.46 906.05 220.36C906.07 221.25 906.04 222.14 905.96 223.03C905.91 223.66 905.82 224.28 905.72 224.9C905.69 225.1 905.61 225.3 905.61 225.5C905.52 225.95 905.42 226.4 905.31 226.84L905.16 227.4C904.99 228.01 904.78 228.66 904.57 229.21C904.36 229.76 904.13 230.31 903.88 230.84C902.15 234.58 899.72 238.04 898.82 242.04C898.77 242.3 898.72 242.56 898.67 242.82C898.63 243.08 898.58 243.35 898.54 243.61C898.5 243.87 898.47 244.13 898.44 244.4C898.4 244.66 898.38 244.93 898.35 245.19C898.31 245.47 898.24 245.75 898.24 246.04C898.24 246.16 898.27 246.18 898.24 246.41C898.21 246.64 898.16 246.97 898.14 247.09C898.12 247.21 898.11 247.24 898.07 247.47C898.03 247.7 898 248.04 897.93 248.15C897.86 248.26 897.86 248.38 897.86 248.49C897.78 248.84 897.68 249.17 897.57 249.49C897.44 249.9 897.27 250.29 897.07 250.66C896.86 251.03 896.62 251.38 896.35 251.71C896.08 252.04 895.77 252.33 895.44 252.6C895.11 252.87 894.76 253.1 894.38 253.3C894.25 253.35 894.12 253.45 893.99 253.45C893.91 253.48 893.83 253.5 893.74 253.52C893.66 253.54 893.58 253.55 893.5 253.57C893.41 253.58 893.33 253.59 893.24 253.6C893.16 253.6 893.07 253.61 892.99 253.61C892.85 253.9 892.71 254.2 892.55 254.49C892.17 255.19 891.77 255.87 891.35 256.54C890.93 257.21 890.48 257.87 890.02 258.51C889.55 259.15 889.06 259.78 888.56 260.39C888.05 261 887.52 261.59 886.97 262.16C887.06 262.49 887.15 262.83 887.25 263.16C887.35 263.49 887.46 263.82 887.57 264.15C887.69 264.47 887.81 264.8 887.93 265.12C888.06 265.44 888.19 265.76 888.33 266.08L888.39 266.19C888.88 266.98 892.23 272.6 894.04 273.98L900.48 278.9C900.48 278.9 906.94 281.9 909.19 281.9C911.44 281.9 923.6 285.03 925.11 286.67C925.29 286.81 925.48 286.94 925.68 287.05C925.88 287.16 926.09 287.25 926.3 287.32C926.52 287.39 926.74 287.44 926.97 287.47C927.19 287.51 927.42 287.52 927.65 287.51C927.91 287.49 928.18 287.47 928.44 287.45C928.71 287.42 928.97 287.39 929.24 287.36C929.5 287.33 929.76 287.29 930.02 287.25C930.29 287.21 930.55 287.17 930.81 287.12L931.41 287.31C932.12 287.21 932.61 287.12 932.61 287.12C932.61 287.12 937.55 288.8 941.91 289.8C946.27 290.8 948.37 297.97 947.47 300.8C947.29 301.5 947.2 302.22 947.2 302.95C947.21 303.67 947.3 304.39 947.48 305.09C947.67 305.79 947.94 306.47 948.29 307.1C948.65 307.73 949.08 308.32 949.58 308.84C951.38 310.63 951.74 316.26 952.28 316.44C952.82 316.62 953.35 316.85 953.85 317.13C954.35 317.41 954.82 317.73 955.26 318.1C955.7 318.47 956.1 318.89 956.46 319.33C956.81 319.78 957.13 320.26 957.39 320.77C958.43 323.03 958.5 327.17 958.5 329.49C958.44 330.52 958.44 331.2 958.44 331.2C958.46 331.2 967.45 331.36 968.35 338.81C969.25 346.26 977.5 349.69 977.5 349.69C977.5 349.69 983.66 355.8 983.66 358.63C983.66 361.46 988.31 366.53 988.31 366.98C988.31 367.43 992.81 376.52 992.21 378.16C991.61 379.8 997.02 386.96 995.31 389.71ZM952.24 387.59C950.29 387.44 948.64 382.67 948.64 382.67C948.64 382.67 939.21 371.64 936.21 362.29L936.05 362.52C936.05 362.52 936.36 374.59 935.45 377.27C934.93 378.83 936.08 394.88 937.14 408.05C937.21 408.98 937.29 409.9 937.36 410.8C938.29 409.56 939.29 407.98 939.36 406.8C939.47 404.54 948.97 394.25 953.47 393.8C953.47 393.8 954.19 387.74 952.24 387.59Z" />
	<path id="Layer" class="shp5" d="M712.81 390.41C712.81 390.41 718.28 361.71 735.89 361.56L748.76 388.04L740.18 393.96C740.18 393.96 721.54 394.55 712.81 390.41Z" />
	<path id="Layer" class="shp6" d="M748.76 388.04L740.18 393.96C740.18 393.96 727.06 394.38 717.68 392.07C717.26 391.97 716.85 391.86 716.43 391.74C716.02 391.62 715.61 391.5 715.21 391.36C714.8 391.22 714.4 391.07 714 390.91C713.6 390.75 713.2 390.59 712.81 390.41C712.42 390.23 712.81 390.25 712.91 389.95C712.91 389.95 712.91 389.88 712.91 389.84C713.11 388.94 713.33 388.04 713.57 387.15C713.81 386.26 714.07 385.38 714.35 384.5C714.63 383.62 714.92 382.75 715.24 381.88C715.55 381.01 715.89 380.15 716.24 379.3C716.79 378.01 717.4 376.68 718.06 375.35C720.64 370.35 724.26 365.53 729.22 363.12C729.68 362.9 730.14 362.69 730.62 362.52C731.1 362.34 731.59 362.19 732.08 362.06C732.57 361.93 733.07 361.83 733.57 361.75C734.08 361.67 734.58 361.62 735.09 361.59L735.61 361.59L735.87 361.59L736.15 362.18L740.5 371.12L748.76 388.04Z" />
	<path id="Layer" class="shp5" d="M894.92 507.28C894.92 507.28 913.42 505.51 915.04 506.84C916.66 508.17 927.17 514.97 933.39 510.68C939.61 506.39 935.46 491.45 935.46 490.86C935.46 490.27 934.87 469.11 934.87 469.11L923.77 454.17L909.87 427.99L881.47 425.17L882.21 466.75L882.06 488.05L894.92 507.28Z" />
	<path id="Layer" class="shp6" d="M894.92 507.28C894.92 507.28 913.42 505.51 915.04 506.84C916.66 508.17 927.17 514.97 933.39 510.68C939.61 506.39 935.46 491.45 935.46 490.86C935.46 490.27 934.87 469.11 934.87 469.11L923.77 454.17L909.87 427.99L881.47 425.17L882.21 466.75L882.06 488.05L894.92 507.28Z" />
	<path id="Layer" class="shp7" d="M732.19 360.8C732.19 360.8 730.71 378.85 719.47 379.14C719.47 379.14 716.28 377.22 711.99 374.02C702.11 366.63 686.44 352.42 690.77 339.2C696.98 320.27 727.16 355.2 727.16 355.2L729.47 357.8L732.19 360.8Z" />
	<path id="Layer" class="shp6" d="M732.19 360.8C732.19 360.8 730.71 378.85 719.47 379.14C719.47 379.14 716.28 377.22 711.99 374.02L711.04 372.79C711.52 373.04 712 373.26 712.5 373.45C713 373.65 713.51 373.82 714.03 373.96C714.55 374.1 715.07 374.21 715.6 374.29C716.13 374.37 716.66 374.43 717.2 374.45C718.04 374.48 718.88 374.39 719.69 374.17C720.51 373.95 721.28 373.61 721.99 373.16C722.7 372.71 723.34 372.16 723.88 371.52C724.43 370.87 724.87 370.15 725.2 369.38C725.5 368.8 725.78 368.22 726.06 367.63C726.34 367.04 726.61 366.44 726.87 365.85C727.12 365.25 727.37 364.65 727.62 364.05C727.86 363.44 728.09 362.83 728.31 362.22C728.45 361.86 728.57 361.5 728.69 361.14C728.81 360.78 728.91 360.41 729.01 360.04C729.11 359.67 729.19 359.3 729.27 358.93C729.35 358.55 729.41 358.18 729.47 357.8L732.19 360.8Z" />
	<path id="Layer" class="shp8" d="M727.31 393.52L724.78 390.26L716.26 379.26L711.92 373.65C712.39 373.9 712.88 374.12 713.38 374.32C713.88 374.51 714.39 374.68 714.91 374.82C715.43 374.96 715.95 375.07 716.48 375.15C717.01 375.23 717.54 375.29 718.08 375.31C720.91 375.38 724.08 374.31 726.08 370.25C726.38 369.67 726.66 369.08 726.94 368.49C727.22 367.9 727.48 367.31 727.74 366.71C728 366.11 728.25 365.51 728.49 364.91C728.74 364.3 728.97 363.69 729.19 363.08C730.59 359.08 730.57 357.08 730.07 356.35C729.57 355.62 733.21 359.03 734.96 360.69L735.02 360.75L735.84 361.52L736.14 362.12L740.43 370.69C740.43 370.69 740.43 370.81 740.43 371.05C740.85 373.8 742.3 391.07 727.31 393.52Z" />
	<path id="Layer" class="shp5" d="M815.93 774.31C815.93 774.31 803.5 782.45 797.29 781.31C791.08 780.17 784.71 783.39 784.71 783.39C783.64 784.55 782.51 785.65 781.3 786.67C780.1 787.69 778.83 788.63 777.51 789.49C776.19 790.35 774.82 791.13 773.4 791.81C771.98 792.5 770.51 793.1 769.02 793.6C759.02 797 744.92 795.66 736.93 793C733.15 791.74 732.84 790.12 734.66 788.11C736.66 785.87 741.32 783.18 746.66 779.98C756.87 773.92 767.81 761.98 767.81 761.98C767.81 761.98 767.96 758.98 769.74 757.7C770.01 757.46 770.28 757.22 770.54 756.97C770.81 756.73 771.06 756.47 771.31 756.21C771.56 755.95 771.81 755.68 772.05 755.41C772.28 755.14 772.52 754.86 772.74 754.58C774.33 752.7 775.82 750.74 775.82 750.74L812.38 751.8C812.38 751.8 813 754.43 813.49 757.12C813.59 757.56 813.68 757.99 813.76 758.44C813.83 758.88 813.89 759.32 813.93 759.77C813.97 760.21 814 760.66 814.01 761.11C814.02 761.55 814.02 762 814 762.45C813.95 762.77 813.94 763.1 813.96 763.43C813.98 763.76 814.03 764.08 814.12 764.4C814.2 764.71 814.32 765.02 814.47 765.31C814.62 765.61 814.8 765.88 815 766.14L815.66 772.14L815.93 774.31Z" />
	<path id="Layer" class="shp5" d="M892.41 784.52C891.97 786.29 891.41 789.46 891.2 790.95L891.07 791.77C891.07 791.77 888.07 798.28 871.7 800.65C855.33 803.02 855.28 795.17 855.28 795.17C855.28 795.17 855.34 794.33 855.44 793.06C855.73 789.6 856.32 782.97 856.76 781.56C857.34 779.64 856.31 771.2 856.31 771.2L856.14 762.39L856.01 756.27L883.24 753.45C883.28 753.96 883.33 754.47 883.39 754.97C883.45 755.48 883.51 755.99 883.59 756.49C883.66 757 883.74 757.5 883.83 758.01C883.92 758.51 884.02 759.01 884.12 759.51C884.16 759.79 884.22 760.06 884.29 760.33C884.36 760.6 884.45 760.87 884.55 761.13C884.65 761.39 884.76 761.65 884.89 761.9C885.02 762.14 885.16 762.39 885.31 762.62C886.79 764.25 887.67 771.5 887.67 771.5C887.67 771.5 893 782.15 892.41 784.52Z" />
	<path id="Layer" class="shp6" d="M812.38 751.8C812.38 751.8 813 754.43 813.49 757.12C809.54 757.85 792.28 760.84 787.97 758.75C783.08 756.38 772.58 755.05 772.58 755.05L772.75 754.45C774.34 752.57 775.83 750.61 775.83 750.61L812.38 751.8Z" />
	<path id="Layer" class="shp6" d="M884.12 759.51C877.22 758.34 862.12 761.17 856.12 762.39L855.99 756.27L883.22 753.45C883.26 753.96 883.32 754.47 883.37 754.97C883.43 755.48 883.5 755.99 883.58 756.49C883.65 757 883.73 757.5 883.82 758.01C883.92 758.51 884.01 759.01 884.12 759.51Z" />
	<path id="Layer" class="shp9" d="M899.47 535.24L898.88 556.1C898.88 556.1 899.62 587.91 897.4 592.94C895.18 597.97 895.18 618.24 895.18 618.24C895.18 618.24 896.66 627.85 895.03 629.92C893.4 631.99 894.59 639.68 895.77 643.68C896.95 647.68 895.92 657.59 895.92 657.59L895.62 713.51C895.62 713.51 894 728 891.92 730.08C891.62 730.39 891.37 730.73 891.16 731.1C890.95 731.47 890.8 731.87 890.69 732.29C890.59 732.7 890.54 733.12 890.55 733.55C890.56 733.98 890.62 734.4 890.74 734.81C890.86 735.22 888.97 743.09 889.41 744.58C889.85 746.07 890.74 749.46 887.34 751.08C883.94 752.7 884.82 757.89 884.82 757.89C876.69 755.96 853.61 761.15 853.61 761.15C852.99 759.87 852.38 758.57 851.8 757.27C851.22 755.96 850.65 754.65 850.11 753.33C849.57 752.01 849.05 750.68 848.54 749.34C848.04 748.01 847.56 746.66 847.1 745.31C846.7 744.22 846.54 743.05 846.63 741.89C846.72 740.73 847.06 739.6 847.62 738.58C848.18 737.55 848.95 736.66 849.88 735.96C850.81 735.27 851.88 734.77 853.02 734.52C856.12 734.07 850.8 728.6 850.8 728.6C850.8 728.6 851.39 727.86 849.91 722.54C848.43 717.22 850.2 703.54 850.65 700.04C851.1 696.54 853.31 679.33 853.31 679.33C853.31 679.33 852.13 657.59 853.02 656.7C853.91 655.81 856.86 647.23 855.39 644.42C853.92 641.61 851.53 623.12 851.53 622.08C851.53 621.04 849.62 597.08 849.62 597.08C849.62 597.08 847.84 580.36 848.29 576.81C848.74 573.26 847.1 560.1 847.1 560.1C847.1 549.1 840.74 537.31 840.74 537.31L840.58 537.74L826.87 573.86C826.87 573.86 824.65 584.8 822.73 591.01C822.43 592.07 822.14 593.13 821.87 594.19C821.59 595.25 821.34 596.32 821.1 597.39C820.86 598.46 820.63 599.54 820.42 600.62C820.21 601.7 820.02 602.78 819.84 603.86L819.71 604.65C819.71 604.98 819.61 605.26 819.58 605.48L819.49 606.08L819.49 606.08C819.49 606.08 820.49 613.92 818.89 616.44C817.29 618.96 815.49 626.5 815.49 628.57C815.49 630.64 815.64 638.63 815.64 638.63C815.64 638.63 816.23 654.46 814.64 656.24C813.05 658.02 813.89 659.49 813.89 659.49C813.89 659.49 816.55 671.49 815.37 674.58C814.19 677.67 815.08 684.93 815.08 684.93C815.08 684.93 812.71 707.87 812.42 709.05C812.13 710.23 810.49 719.41 812.27 720.15C814.05 720.89 817.44 725.32 817.44 725.32C817.44 725.32 818.19 744.71 815.52 746.18C812.85 747.65 814.33 755.18 814.33 755.18C814.33 755.18 792.89 759.32 788.01 756.95C783.13 754.58 772.62 753.25 772.62 753.25L774.09 748.39C774 748.56 773.02 750.14 772.32 744.08C771.59 737.72 777.8 740.82 777.8 740.82C777.8 740.82 782.68 742.01 774.8 734.32C766.92 726.63 770.8 718.78 771.25 718.78C771.7 718.78 772.74 707.4 772.74 707.4C772.74 707.4 774.07 700.59 773.03 695.26C771.99 689.93 771.11 673.36 771.11 673.36C771.11 673.36 771.85 660.79 770.52 656.21C769.19 651.63 771.4 643.33 771.85 641.41C772.3 639.49 770.47 621.93 770.47 621.93C770.47 621.93 771.95 613.65 771.06 607.59C770.17 601.53 771.95 579.18 771.95 579.18L774.61 553.44C774.61 553.44 776.53 545.44 776.24 542.19C775.95 538.94 778.47 527.55 778.47 527.55C778.43 526.95 778.43 526.34 778.46 525.74C778.49 525.13 778.56 524.53 778.66 523.93C778.75 523.34 778.89 522.75 779.05 522.16C779.22 521.58 779.42 521.01 779.65 520.45C781.13 517.45 781.72 507.73 781.72 507.73L795.93 475.18L802.93 446.48L896.86 445.59C896.86 445.59 897.21 448.08 897.78 452.59C898.35 457.1 899.15 463.8 900.04 472.07C900.86 479.58 901.76 488.41 902.63 498.24C905.47 529.62 899.47 535.24 899.47 535.24Z" />
	<path id="Layer" class="shp7" d="M890.78 276.2L868.88 299.58C868.88 299.58 840.78 288.33 843.74 284.49C844.88 283 844.74 278.3 844.04 273.12C843.04 264.92 840.78 255.49 840.78 255.49C840.78 255.49 889.89 247.49 885.78 255.78C884.27 258.78 884.53 262.34 885.47 265.61C885.77 266.56 886.1 267.49 886.47 268.41C886.85 269.33 887.25 270.23 887.7 271.12C888.14 272.01 888.62 272.87 889.14 273.72C889.65 274.57 890.2 275.4 890.78 276.2Z" />
	<path id="Layer" class="shp6" d="M885.75 255.8C884.24 258.8 883.52 259.12 884.46 262.39C878.04 269.26 869.87 276.8 859.71 276.8C858.36 276.8 857 276.73 855.66 276.57C854.31 276.42 852.98 276.18 851.66 275.88C850.34 275.57 849.04 275.18 847.77 274.72C846.5 274.27 845.25 273.73 844.04 273.13C843.04 264.93 840.78 255.5 840.78 255.5C840.78 255.5 889.89 247.5 885.75 255.8Z" />
	<path id="Layer" class="shp7" d="M894.93 240.69C894.77 249.93 891 258.73 884.41 265.21C877.82 271.69 868.95 275.32 859.72 275.32C850.48 275.32 841.61 271.69 835.02 265.21C828.43 258.73 824.66 249.93 824.5 240.69C824.5 240.52 824.5 240.35 824.5 240.19C824.57 230.85 828.34 221.92 834.99 215.37C841.64 208.81 850.62 205.16 859.96 205.23C869.3 205.3 878.23 209.07 884.78 215.72C891.34 222.37 894.99 231.35 894.92 240.69L894.93 240.69Z" />
	<path id="Layer" class="shp6" d="M900.02 472.98C895.36 472.98 879.83 473.15 862.47 473.42L862.26 473.42L856.53 473.52L856.35 473.52C835.77 473.85 815.48 469.83 807.35 470.59C790.05 472.21 813.57 454.59 813.57 454.59C816.79 455.37 820.04 456.04 823.3 456.6C826.57 457.16 829.85 457.61 833.15 457.95C836.44 458.28 839.75 458.5 843.06 458.61C846.37 458.72 849.69 458.71 853 458.59L858 458.33C873.72 457.44 889.53 455.96 897.79 453.48C898.34 458.06 899.13 464.71 900.02 472.98Z" />
	<path id="Layer" class="shp10" d="M900.02 472.09C895.36 472.09 879.83 472.26 862.47 472.53L862.26 472.53L856.53 472.63L856.35 472.63C835.77 472.96 815.48 468.94 807.35 469.7C790.05 471.33 813.57 453.7 813.57 453.7C816.79 454.48 820.04 455.15 823.3 455.71C826.57 456.27 829.85 456.72 833.15 457.06C836.44 457.39 839.75 457.61 843.06 457.72C846.37 457.83 849.69 457.82 853 457.7L858 457.44C873.72 456.55 889.53 455.07 897.79 452.6C898.34 457.18 899.13 463.8 900.02 472.09Z" />
	<path id="Layer" class="shp6" d="M850.25 285.96L823.03 298.69L802.03 461.12C802.03 461.12 814.45 455.5 821.56 459.05C828.67 462.6 850.56 459.35 850.56 459.35C850.56 459.35 866.56 458.46 868.91 460.24C871.26 462.02 899.07 452.8 899.07 452.8C899.07 452.8 904.07 441.56 900.25 439.8C896.43 438.04 901.47 420.59 901.47 420.59L899.07 303.42L894.33 288.33L881.61 280.64L868.61 290.99L862.4 291.88L850.25 285.96Z" />
	<path id="Layer" class="shp8" d="M850.25 284.19L823.03 296.91L802.03 459.35C802.03 459.35 814.45 453.73 821.56 457.28C828.67 460.83 850.56 457.57 850.56 457.57C850.56 457.57 866.56 456.69 868.91 458.46C871.26 460.23 899.09 451.06 899.09 451.06C899.09 451.06 904.09 439.82 900.27 438.06C896.45 436.3 901.47 418.8 901.47 418.8L899.07 301.64L894.33 286.56L881.61 278.86L868.61 289.22L862.4 290.11L850.25 284.19Z" />
	<path id="Layer" class="shp6" d="M849.8 291.73C849.8 291.73 857.64 301.05 857.5 302.98C857.36 304.91 857.05 309.49 857.05 309.49L851.13 321.49C851.13 321.49 847.88 336.43 847.88 339.54C847.88 342.65 842.7 369.54 842.7 369.54L836.47 410.97L828.63 465.27L836.63 479.02L846.09 471.02L858.67 374.26L861.33 355.18C861.33 355.18 864.14 320.86 864.14 317.31C864.14 313.76 862.52 304.44 862.52 304.44C862.52 304.44 864.44 295.56 872.43 293.44C880.42 291.32 871.84 292.99 871.84 292.99L867.25 289.3L863.25 290.92C863.25 290.92 852.17 287.59 849.8 291.73Z" />
	<path id="Layer" class="shp2" d="M848.91 290.85C848.91 290.85 856.76 300.17 856.61 302.09C856.46 304.01 856.16 308.6 856.16 308.6L850.25 320.6C850.25 320.6 846.99 335.54 846.99 338.65C846.99 341.76 841.81 368.65 841.81 368.65L835.6 410.07L827.76 464.37L835.76 478.13L845.23 470.13L857.8 373.38L860.47 354.31C860.47 354.31 863.28 319.99 863.28 316.44C863.28 312.89 861.66 303.57 861.66 303.57C861.66 303.57 863.58 294.69 871.57 292.62C879.56 290.55 870.98 292.18 870.98 292.18L866.39 288.48L862.39 290.11C862.39 290.11 851.28 286.7 848.91 290.85Z" />
	<path id="Layer" class="shp6" d="M843.74 275.31C843.74 275.31 842.55 276.2 842.26 282.12C841.97 288.04 837.82 301.35 837.82 301.35C837.82 301.35 853.21 290.7 860.9 291.88L843.74 275.31Z" />
	<path id="Layer" class="shp8" d="M843.74 273.54C843.74 273.54 842.55 274.42 842.26 280.34C841.97 286.26 837.82 299.57 837.82 299.57C837.82 299.57 853.21 288.92 860.9 290.11L843.74 273.54Z" />
	<path id="Layer" class="shp6" d="M885.75 270.58L861.47 291.88C861.47 291.88 881.89 304.01 884.55 306.97C887.21 309.93 889.87 277.97 889.87 277.97L885.75 270.58Z" />
	<path id="Layer" class="shp8" d="M886.64 268.8L862.38 290.11C862.38 290.11 882.79 302.24 885.47 305.2C888.15 308.16 890.79 276.2 890.79 276.2L886.64 268.8Z" />
	<path id="Layer" class="shp6" d="M844.62 275.31C844.62 275.31 841.96 273.98 839.45 277.83C838.99 278.45 838.49 279.04 837.95 279.6C837.41 280.15 836.83 280.67 836.22 281.14C835.6 281.62 834.96 282.05 834.29 282.44C833.62 282.82 832.92 283.16 832.2 283.45C831.48 283.74 805.27 287.74 804.2 291.29L791.62 292.03C791.62 292.03 787.18 292.62 786.74 301.94C786.3 311.26 783.93 312.15 783.93 312.15C783.93 312.15 778.75 321.32 779.2 326.05C779.65 330.78 775.2 333.16 775.2 333.16L793.69 381.24C793.69 381.24 794.29 401.06 790.88 408.31C787.47 415.56 781.12 447.66 781.12 447.66C781.12 447.66 783.78 447.07 783.63 448.84C783.48 450.61 780.47 470 780.47 470C780.47 470 779.58 477.69 778.1 480.36C776.62 483.03 776.47 496.92 776.47 496.92L774.11 506.98C774.11 506.98 779.73 519.56 788.31 517.78C796.89 516 812.42 482.43 812.42 482.43L822.34 446.18L830.03 410.38L832.25 386.12L835.8 332.42L840.98 296.91C840.98 296.91 846.7 277.8 844.62 275.31Z" />
	<path id="Layer" class="shp5" d="M843.74 273.54C843.74 273.54 841.07 272.21 838.56 276.05C838.1 276.67 837.6 277.27 837.06 277.82C836.52 278.38 835.94 278.89 835.33 279.37C834.72 279.84 834.07 280.27 833.4 280.66C832.73 281.04 832.03 281.38 831.31 281.67C830.59 281.96 804.39 285.96 803.31 289.51L790.73 290.25C790.73 290.25 786.3 290.85 785.85 300.17C785.4 309.49 783.04 310.37 783.04 310.37C783.04 310.37 777.86 319.55 778.31 324.28C778.76 329.01 774.31 331.38 774.31 331.38L792.81 379.46C792.81 379.46 793.4 399.28 790 406.53C786.6 413.78 780.23 445.89 780.23 445.89C780.23 445.89 782.89 445.29 782.75 447.07C782.61 448.85 779.49 468.22 779.49 468.22C779.49 468.22 778.6 475.92 777.12 478.58C775.64 481.24 775.5 495.15 775.5 495.15L773.13 505.21C773.13 505.21 778.75 517.78 787.33 516.01C795.91 514.24 811.47 480.65 811.47 480.65L821.38 444.41L829.07 408.61L831.29 384.34L834.84 330.64L840.02 295.14C840.02 295.14 845.81 276.05 843.74 273.54Z" />
	<path id="Layer" class="shp6" d="M748.76 388.04L740.18 393.96C740.18 393.96 727.06 394.38 717.68 392.07L712.91 389.95L711.91 389.53L712.91 389.84C717.86 391.31 721.73 391.28 724.76 390.26C736.9 386.17 735.56 366.12 735.09 361.59C735.09 361.13 735.01 360.84 734.99 360.73C734.99 360.73 734.99 360.72 734.99 360.72C734.99 360.71 734.99 360.71 734.99 360.7C734.99 360.69 734.99 360.69 734.99 360.68C734.99 360.68 734.99 360.67 734.99 360.67L735.06 360.79C735.1 360.86 735.14 360.93 735.19 360.99C735.23 361.06 735.28 361.13 735.33 361.19C735.37 361.26 735.42 361.32 735.47 361.38C735.52 361.45 735.57 361.51 735.62 361.57C735.79 361.76 735.97 361.96 736.16 362.15L736.16 362.15L740.45 370.72C740.45 370.72 740.45 370.84 740.45 371.08L748.76 388.04Z" />
	<path id="Layer" class="shp5" d="M778.47 330.2L774.32 331.38L773.73 339.81C773.73 339.81 768.85 339.07 767.52 344.81C766.19 350.55 763.82 353.25 763.82 353.25C763.82 353.25 755.68 360.05 755.24 365.82L750.24 368.93C750.24 368.93 738.55 366.26 735.89 361.53C735.89 361.53 741.22 399.7 712.81 390.38C712.81 390.38 744.62 404.28 746.1 406.21C747.58 408.14 757.34 413.75 766.22 409.02C775.1 404.29 777.02 397.02 777.02 397.02C777.02 397.02 785.6 385.02 785.89 383.26C786.18 381.5 792.89 379.41 792.89 379.41L805.61 348.64L778.47 330.2Z" />
	<path id="Layer" class="shp6" d="M882.35 288.33L886.64 268.8C886.64 268.8 888.56 275.16 890.49 276.64L896.85 281.53C896.85 281.53 903.21 284.48 905.43 284.48C907.65 284.48 919.63 287.59 921.11 289.22C922.59 290.85 928.51 289.66 928.51 289.66C928.51 289.66 933.39 291.29 937.68 292.32C941.97 293.35 944.04 300.46 943.15 303.32C942.97 304.02 942.88 304.73 942.88 305.45C942.88 306.17 942.97 306.89 943.15 307.59C943.33 308.28 943.6 308.96 943.95 309.59C944.3 310.21 944.72 310.8 945.22 311.32C947 313.1 947.89 318.87 947.89 318.87C948.43 319.05 948.94 319.28 949.43 319.55C949.92 319.83 950.39 320.15 950.81 320.52C951.24 320.89 951.63 321.3 951.98 321.74C952.33 322.18 952.63 322.66 952.89 323.16C954.37 326.41 953.89 333.51 953.89 333.51L931.89 364.58C931.89 364.58 932.18 376.58 931.3 379.23C930.42 381.88 934.4 427.16 934.4 427.16L938.99 504.97C938.99 504.97 932.92 510.15 931.59 510.74C930.26 511.33 928.93 483.23 928.93 482.19C928.93 481.15 894.76 431 894.76 431C894.76 431 890.17 423.61 890.17 422C890.17 420.39 885.88 405.43 885.88 405.43L879.37 376.58L882.35 288.33Z" />
	<path id="Layer" class="shp5" d="M955.78 331.8C955.78 332.8 955.78 333.5 955.78 333.5L933.78 364.5L933.78 364.5C933.78 364.5 934.08 376.5 933.2 379.14C932.68 380.69 933.81 396.61 934.86 409.69C935.6 419.12 936.3 427.07 936.3 427.07L938.25 460.07L940.88 504.87C940.88 504.87 934.82 510.05 933.49 510.64C932.16 511.23 930.83 483.13 930.83 482.09C930.83 481.05 896.65 430.91 896.65 430.91C896.65 430.91 892.06 423.5 892.06 421.91C892.06 420.32 887.77 405.34 887.77 405.34L881.27 376.49L884.22 288.32L886.64 268.8C886.64 268.8 890.34 275.17 892.26 276.64L898.62 281.52C898.62 281.52 904.98 284.52 907.2 284.52C909.42 284.52 921.41 287.62 922.89 289.25C924.37 290.88 930.28 289.69 930.28 289.69C930.28 289.69 935.16 291.32 939.45 292.35C943.74 293.38 945.82 300.49 944.93 303.35C944.75 304.05 944.66 304.76 944.66 305.48C944.66 306.2 944.75 306.92 944.93 307.62C945.11 308.32 945.38 308.99 945.73 309.62C946.08 310.25 946.5 310.83 947 311.35C948.77 313.12 949.66 318.89 949.66 318.89C950.2 319.07 950.71 319.3 951.2 319.58C951.69 319.85 952.16 320.18 952.58 320.55C953.01 320.92 953.4 321.32 953.75 321.77C954.1 322.21 954.4 322.69 954.66 323.19C955.72 325.34 955.82 329.45 955.78 331.8Z" />
	<path id="Layer" class="shp6" d="M774.95 725.94C775.68 725.94 806.75 727.12 806.16 732.15C805.57 737.18 774.95 725.94 774.95 725.94Z" />
	<path id="Layer" class="shp6" d="M781.9 734.37C781.9 734.37 802.76 737.77 797.28 740.88C791.8 743.99 781.9 734.37 781.9 734.37Z" />
	<path id="Layer" class="shp6" d="M859.47 722.68C859.47 722.68 894.09 725.68 888.91 729.49C883.73 733.3 871.45 733.92 870.91 734.07C870.37 734.22 859.47 722.68 859.47 722.68Z" />
	<path id="Layer" class="shp6" d="M855.28 737.92C855.28 737.92 874.51 741.17 875.1 744.92C875.69 748.67 855.28 737.92 855.28 737.92Z" />
	<path id="Layer" class="shp6" d="M865.93 648.86C865.93 648.86 883.53 653 884.57 655.86L865.93 648.86Z" />
	<path id="Layer" class="shp6" d="M798.02 661.58C798.02 661.58 788.85 664.24 797.73 669.58C806.61 674.92 798.02 661.58 798.02 661.58Z" />
	<path id="Layer" class="shp6" d="M838.71 519.41C839.71 519.41 855.87 514.09 861.49 516.41C862.49 516.79 863.51 517.12 864.54 517.41C865.58 517.7 866.62 517.95 867.67 518.15C868.73 518.35 869.79 518.5 870.85 518.61C871.92 518.72 872.99 518.78 874.06 518.8L838.71 519.41Z" />
	<path id="Layer" class="shp6" d="M840.78 536.27L840.62 537.74L826.87 573.86C826.87 573.86 824.65 584.8 822.73 591.01C822.43 592.07 822.14 593.13 821.87 594.19C821.59 595.25 821.34 596.32 821.1 597.39C820.86 598.46 820.63 599.54 820.42 600.62C820.21 601.7 820.02 602.78 819.84 603.86L832.05 528.14L840.78 536.27Z" />
	<path id="Layer" class="shp9" d="M862.26 472.53L856.53 472.63L856.35 472.63L852.99 457.72L857.99 457.45L862.26 472.53Z" />
	<path id="Layer" class="shp7" d="M932.06 454.47L928.37 457.47L916.08 467.6C916.08 467.6 882.79 485.36 873.62 468.49C865.54 453.63 903.28 443.02 912.37 440.71C913.6 440.4 914.3 440.24 914.3 440.24L932.06 454.47Z" />
	<path id="Layer" class="shp6" d="M789.89 309.04C789.89 309.04 796.4 312.04 797.89 316.14C799.38 320.24 789.89 309.04 789.89 309.04Z" />
	<path id="Layer" class="shp6" d="M769.77 353.42C769.77 353.42 760.3 364.96 764.15 369.42C768 373.88 769.77 353.42 769.77 353.42Z" />
	<path id="Layer" class="shp6" d="M939.01 315.55C939.01 315.55 930.13 316.44 929.84 324.13L939.01 315.55Z" />
	<path id="Layer" class="shp6" d="M856.76 436.86C857.64 435.97 878.06 405.79 882.76 408.46L856.76 436.86Z" />
	<path id="Layer" class="shp6" d="M894.93 240.69C894.93 242.13 894.85 243.57 894.67 245.01C894.49 246.44 894.23 247.86 893.88 249.26C893.53 250.66 893.09 252.04 892.57 253.38C892.05 254.73 891.44 256.04 890.76 257.31L890.5 257.26C888.27 256.79 887.11 254.19 885.4 252.57C884.88 252.07 884.28 251.66 883.63 251.35C882.99 251.03 882.29 250.82 881.58 250.72C880.87 250.62 880.14 250.64 879.43 250.76C878.72 250.88 878.04 251.12 877.4 251.45C876.76 251.84 876.17 252.31 875.66 252.86C875.14 253.41 874.71 254.02 874.36 254.69C874.02 255.36 873.77 256.07 873.62 256.8C873.47 257.54 873.42 258.29 873.48 259.04C872.35 254.3 872.71 249.27 871.61 244.52C870.51 239.77 867.2 234.97 862.66 234.89C860.66 234.89 858.43 235.6 857.01 234.14C856.16 233.26 856.01 231.87 855.35 230.79C852.11 225.55 842.24 228.2 838.21 230.89C834.18 233.58 829.51 237.89 824.5 240.19C824.57 230.85 828.34 221.92 834.99 215.37C841.64 208.81 850.62 205.16 859.96 205.23C869.3 205.3 878.23 209.07 884.78 215.72C891.34 222.37 894.99 231.35 894.92 240.69L894.93 240.69Z" />
	<path id="Layer" class="shp11" d="M855.36 229.91C856 230.98 856.17 232.37 857.02 233.25C858.43 234.72 860.72 233.96 862.67 234C867.21 234.08 870.52 238.88 871.62 243.63C872.72 248.38 872.36 253.41 873.49 258.15C873.43 257.4 873.48 256.65 873.63 255.91C873.78 255.17 874.03 254.46 874.37 253.8C874.72 253.13 875.16 252.51 875.67 251.96C876.19 251.42 876.77 250.95 877.42 250.56C878.06 250.23 878.74 249.99 879.45 249.87C880.16 249.75 880.89 249.73 881.6 249.83C882.31 249.93 883.01 250.14 883.65 250.46C884.3 250.77 884.9 251.18 885.42 251.68C887.13 253.3 888.29 255.9 890.52 256.37C892.75 256.84 894.9 254.7 895.71 252.37C896.52 250.04 896.46 247.44 896.99 245C897.99 240.39 900.99 236.6 902.67 232.21C903.16 230.89 903.53 229.53 903.77 228.14C904.01 226.75 904.13 225.34 904.12 223.94C904.1 222.53 903.96 221.12 903.7 219.74C903.43 218.36 903.03 217 902.52 215.69C901.41 212.91 899.76 210.41 898.63 207.64C896.93 203.42 896.49 198.64 894.41 194.64C890.93 187.91 882.73 184.55 875.98 187.08C872.77 188.28 869.98 190.62 866.71 191.67C862.34 193.08 857.66 192.02 853.14 191.39C848.62 190.76 843.61 190.7 839.97 193.67C835.78 197.1 834.64 203.54 830.7 207.3C829.05 208.88 827 209.89 825.26 211.3C823.52 212.71 822.01 214.93 822.26 217.3C822.52 220.36 825.52 223.14 824.41 225.98C824.31 226.19 824.2 226.39 824.08 226.58C823.96 226.77 823.83 226.96 823.7 227.15C823.56 227.33 823.41 227.5 823.26 227.67C823.1 227.84 822.94 228 822.77 228.15C821.95 229.01 821.18 229.92 820.46 230.86C819.75 231.81 819.09 232.8 818.49 233.83C817.88 234.85 817.34 235.91 816.86 236.99C816.38 238.08 815.96 239.2 815.61 240.33C823.52 242.81 832.09 234.08 838.29 229.95C842.26 227.32 852.12 224.66 855.36 229.91Z" />
	<path id="Layer" class="shp6" d="M932.06 454.47L928.37 457.47C925.12 452.07 911.79 441.27 911.79 441.27L912.37 440.71C913.6 440.4 914.3 440.24 914.3 440.24L932.06 454.47Z" />
	<path id="Layer" class="shp8" d="M935.61 448.99C935.61 448.99 934.28 452.29 932.92 455.13C931.56 457.97 930.06 460.57 929.99 458.46C929.84 454.32 912.68 440.41 912.68 440.41L915.01 438.15L917.7 435.53L935.61 448.99Z" />
	<path id="Layer" class="shp6" d="M936.2 427.09L938.15 460.09C933.55 452.94 920.93 434.62 912.82 435.21L932.47 412.6C932.67 412.37 932.88 412.14 933.07 411.91C933.27 411.67 933.46 411.43 933.65 411.19C933.84 410.95 934.02 410.71 934.2 410.46C934.38 410.21 934.56 409.96 934.73 409.71C935.47 419.14 936.2 427.09 936.2 427.09Z" />
	<path id="Layer" class="shp6" d="M935.61 448.99C935.61 448.99 934.28 452.29 932.92 455.13C927.76 448.06 920.67 439.71 915.01 438.13L917.7 435.51L935.61 448.99Z" />
	<path id="Layer" class="shp5" d="M950.4 329.31L955.73 333.45C955.73 333.45 964.6 333.6 965.49 341C966.38 348.4 974.49 351.8 974.49 351.8C974.49 351.8 980.55 357.86 980.55 360.67C980.55 363.48 985.14 368.51 985.14 368.96C985.14 369.41 989.58 378.43 988.98 380.05C988.38 381.67 993.72 388.78 992.09 391.44C991.76 392.04 991.43 392.64 991.12 393.25C990.8 393.85 990.5 394.47 990.2 395.08C989.9 395.7 989.62 396.32 989.34 396.95C989.06 397.58 988.8 398.21 988.54 398.84C988.28 399.47 981.59 412.16 978.04 414.67C974.49 417.18 958.21 438.34 958.21 438.34C958.21 438.34 940.76 458.46 940.76 464.67C940.76 464.67 923.76 436.27 913.68 437.01L933.36 414.37C933.36 414.37 936.76 410.68 936.91 408.46C937.06 406.24 946.38 396.03 950.82 395.59C950.82 395.59 951.55 389.52 949.63 389.37C947.71 389.22 946.08 384.49 946.08 384.49C946.08 384.49 933.08 369.11 932.91 359.34C932.74 349.57 950.4 329.31 950.4 329.31Z" />
	<path id="Layer" class="shp6" d="M958.24 343.36C958.24 343.36 945.82 352.54 948.48 355.49C951.14 358.44 958.24 343.36 958.24 343.36Z" />
	<path id="Layer" class="shp6" d="M958.83 381.24C958.83 381.24 981.91 373.84 984.28 381.24L958.83 381.24Z" />
	<path id="Layer" class="shp6" d="M815.93 774.31C815.93 774.31 803.5 782.45 797.29 781.31C791.08 780.17 784.71 783.39 784.71 783.39C783.64 784.55 782.51 785.65 781.3 786.67C780.1 787.69 778.83 788.63 777.51 789.49C776.19 790.35 774.82 791.13 773.4 791.81C771.98 792.5 770.51 793.1 769.02 793.6C759.02 797 744.92 795.66 736.93 793C733.15 791.74 732.84 790.12 734.66 788.11C743.35 789.84 762.76 793.29 767.99 790.78C774.79 787.52 784.56 780.42 784.56 780.42C784.56 780.42 797.29 778.65 799.06 778.65C800.32 778.65 810.15 774.59 815.7 772.27L815.93 774.31Z" />
	<path id="Layer" class="shp6" d="M891.2 790.95L891.07 791.77C891.07 791.77 888.07 798.28 871.7 800.65C855.33 803.02 855.28 795.17 855.28 795.17C855.28 795.17 855.34 794.33 855.44 793.06C860.64 795.03 871.98 797.23 891.2 790.95Z" />
	<path id="Layer" class="shp6" d="M796.03 341.59C796.03 341.59 796.03 375.32 793.14 378.65C790.25 381.98 796.03 341.59 796.03 341.59Z" />
	<path id="Layer" class="shp6" d="M929.39 352.46L933.68 364.52C933.68 364.52 935.39 352.68 929.39 352.46Z" />
	<g id="Layer" style="opacity: 0.102">
		<path id="Layer" class="shp12" d="M824.79 223.15C825.87 220.37 823.03 217.65 822.66 214.67C822.57 214.88 822.49 215.09 822.42 215.31C822.35 215.53 822.3 215.76 822.26 215.98C822.22 216.21 822.19 216.43 822.18 216.66C822.17 216.89 822.17 217.12 822.19 217.35C822.38 219.59 824.03 221.68 824.47 223.76C824.5 223.71 824.53 223.66 824.56 223.61C824.59 223.56 824.62 223.51 824.64 223.46C824.67 223.41 824.7 223.36 824.72 223.31C824.74 223.26 824.77 223.2 824.79 223.15L824.79 223.15Z" />
		<path id="Layer" class="shp12" d="M873.89 255.01C872.83 250.35 873.14 245.41 872.06 240.74C870.98 236.07 867.65 231.19 863.12 231.11C861.12 231.11 858.88 231.83 857.47 230.37C856.61 229.49 856.47 228.09 855.8 227.02C852.56 221.77 842.7 224.43 838.66 227.12C832.66 231.12 824.3 239.55 816.54 237.65C816.17 238.54 815.83 239.45 815.54 240.38C823.45 242.86 832.02 234.13 838.22 230C842.22 227.32 852.12 224.66 855.36 229.91C856 230.98 856.17 232.37 857.02 233.25C858.43 234.72 860.72 233.96 862.67 234C867.21 234.08 870.52 238.88 871.62 243.63C872.72 248.38 872.36 253.41 873.49 258.15C873.47 257.89 873.47 257.62 873.47 257.35C873.48 257.09 873.5 256.82 873.54 256.56C873.57 256.3 873.62 256.04 873.68 255.78C873.73 255.52 873.81 255.26 873.89 255.01Z" />
		<path id="Layer" class="shp12" d="M896.13 249.47C895.33 251.81 893.22 253.97 890.94 253.47C888.66 252.97 887.55 250.4 885.85 248.77C885.33 248.28 884.73 247.87 884.08 247.56C883.43 247.25 882.74 247.04 882.03 246.94C881.31 246.85 880.59 246.86 879.88 246.98C879.17 247.1 878.49 247.33 877.85 247.66C877.24 248.03 876.67 248.47 876.18 248.99C875.68 249.5 875.25 250.08 874.91 250.71C874.57 251.33 874.31 252 874.14 252.7C873.97 253.39 873.9 254.11 873.92 254.82C874.07 254.37 874.26 253.94 874.48 253.53C874.71 253.12 874.97 252.72 875.27 252.36C875.57 251.99 875.9 251.66 876.26 251.35C876.62 251.05 877 250.78 877.41 250.54C878.05 250.21 878.73 249.97 879.44 249.85C880.15 249.73 880.88 249.71 881.59 249.81C882.3 249.91 883 250.12 883.64 250.44C884.29 250.75 884.89 251.16 885.41 251.66C887.12 253.28 888.28 255.88 890.51 256.35C892.74 256.82 894.89 254.68 895.7 252.35C895.81 252 895.9 251.66 895.99 251.31C896.07 250.95 896.15 250.6 896.22 250.25C896.29 249.89 896.34 249.54 896.39 249.18C896.44 248.82 896.48 248.46 896.51 248.1C896.49 248.22 896.46 248.33 896.43 248.45C896.4 248.56 896.37 248.68 896.34 248.79C896.31 248.91 896.28 249.02 896.24 249.13C896.21 249.25 896.17 249.36 896.13 249.47L896.13 249.47Z" />
		<path id="Layer" class="shp12" d="M903.09 229.31C901.43 233.7 898.41 237.48 897.41 242.1C897.21 243.03 897.09 243.98 896.98 244.94C897.98 240.34 900.98 236.57 902.65 232.19C902.83 231.7 903 231.2 903.15 230.7C903.3 230.19 903.43 229.68 903.55 229.17C903.66 228.66 903.76 228.14 903.84 227.62C903.92 227.11 903.98 226.58 904.02 226.06C903.96 226.34 903.9 226.61 903.83 226.89C903.77 227.16 903.69 227.43 903.62 227.7C903.54 227.97 903.46 228.24 903.37 228.51C903.28 228.78 903.19 229.05 903.09 229.31Z" />
	</g>
	<path id="Layer" class="shp13" d="M689.3 336.43C689.1 336.43 688.94 336.27 688.94 336.07C688.94 335.87 689.1 335.71 689.3 335.71C689.5 335.71 689.66 335.87 689.66 336.07C689.66 336.27 689.5 336.43 689.3 336.43Z" />
	<path id="Layer" class="shp0" d="M817.04 801.09C769.29 801.09 730.7 797.15 730.7 792.28C730.7 787.41 769.29 783.47 817.04 783.47C864.79 783.47 903.38 787.41 903.38 792.28C903.38 797.15 864.79 801.09 817.04 801.09Z" />
	<path id="Layer" class="shp14" d="M499.55 214.39L238.04 384.05L408.7 691.85C409.1 692.57 409.57 693.24 410.1 693.86C410.64 694.48 411.24 695.05 411.89 695.55C412.54 696.04 413.25 696.47 413.99 696.83C414.73 697.18 415.5 697.46 416.3 697.65L570.93 735.37C572.25 735.69 573.6 735.78 574.95 735.64C576.3 735.5 577.61 735.14 578.83 734.56C580.06 733.98 581.17 733.2 582.13 732.24C583.09 731.29 583.88 730.18 584.47 728.96L661.17 569.61L745.23 457.24L545.75 221.24C543 217.98 539.68 215.25 535.95 213.18C532.23 211.11 528.16 209.72 523.94 209.1C519.73 208.47 515.43 208.62 511.26 209.52C507.1 210.42 503.13 212.07 499.55 214.39L499.55 214.39Z" />
	<path id="Layer" class="shp6" d="M747.89 458.57L747.15 459.57L697.91 525.4L697.02 526.59L663.83 570.96L598.23 707.27L596.39 711.08L587.13 730.31C586.54 731.53 585.75 732.64 584.79 733.6C583.83 734.55 582.71 735.34 581.48 735.92C580.26 736.49 578.94 736.86 577.6 737C576.25 737.13 574.89 737.04 573.57 736.72L418.94 698.98C418.14 698.79 417.37 698.51 416.63 698.16C415.89 697.8 415.18 697.38 414.53 696.88C413.88 696.38 413.28 695.82 412.74 695.19C412.21 694.57 411.74 693.9 411.34 693.18L396.47 666.41L393.8 661.59L286.47 467.93L285.55 466.28L240.69 385.38L246.11 381.86L287.2 355.21L288.15 354.59L374.68 298.45L380.14 294.91L502.19 215.72C505.77 213.4 509.74 211.75 513.91 210.84C518.07 209.93 522.37 209.79 526.59 210.41C530.81 211.04 534.88 212.42 538.61 214.49C542.34 216.57 545.66 219.3 548.41 222.56L639.41 330.26L643.41 335.06L709.46 413.2L709.82 413.63L743.03 452.91L747.21 457.86L747.89 458.57Z" />
	<path id="Layer" class="shp6" d="M707.26 412.3L699.2 468.3L696.77 485.2L695.38 521.2L695.27 524.01L688.04 712.11C687.97 713.86 687.52 715.56 686.72 717.11C685.91 718.67 684.78 720.02 683.4 721.09C682.01 722.15 680.41 722.9 678.71 723.28C677 723.66 675.23 723.66 673.53 723.28L595.59 705.88L594.75 705.69L394.86 661.08L391.19 660.26L281.3 635.72L283.82 466.6L283.9 460.95L284.66 409.76L285.5 353.26L372.03 297.12L377.49 293.58C457.75 301.81 564.49 317.64 636.8 328.93L640.8 333.73L706.8 411.87L707.26 412.3Z" />
	<path id="Layer" class="shp2" d="M716.39 345.9L706.9 411.9L698.2 472.34L695.77 489.2L694.38 525.2L687.04 716.11C686.97 717.86 686.52 719.56 685.72 721.11C684.91 722.67 683.78 724.02 682.4 725.09C681.01 726.15 679.41 726.9 677.71 727.28C676 727.66 674.23 727.66 672.53 727.28L593.75 709.69L393.86 665.08L280.3 639.72L282.9 464.95L283.66 413.76L284.55 353.88L285.46 292.29C304.24 291.4 335.14 293.41 372.03 297.12C454.63 305.41 567.23 322.18 640.85 333.73C685.93 340.8 716.39 345.9 716.39 345.9Z" />
	<path id="Layer" class="shp6" d="M740.47 451.58L698.2 472.31L482.47 578.11L283.66 413.8L243.47 380.53L238.05 384.05L282.91 464.95L280.31 639.72L393.87 665.08L408.71 691.85C409.11 692.57 409.58 693.24 410.11 693.86C410.65 694.49 411.25 695.05 411.9 695.55C412.55 696.05 413.26 696.47 414 696.83C414.74 697.18 415.51 697.46 416.31 697.65L570.94 735.37C572.25 735.69 573.61 735.78 574.96 735.64C576.3 735.5 577.61 735.13 578.84 734.55C580.06 733.98 581.17 733.19 582.13 732.24C583.09 731.29 583.88 730.18 584.47 728.96L593.73 709.73L672.51 727.32C674.21 727.7 675.98 727.7 677.69 727.32C679.39 726.94 680.99 726.19 682.38 725.13C683.76 724.06 684.89 722.71 685.7 721.15C686.5 719.6 686.95 717.9 687.02 716.15L694.36 525.24L744.49 458.24L744.63 456.55L740.47 451.58Z" />
	<path id="Layer" class="shp14" d="M238.04 384.05L220.21 689.38C220.13 690.78 220.29 692.19 220.7 693.53C221.11 694.88 221.75 696.14 222.6 697.26C223.44 698.38 224.48 699.34 225.66 700.1C226.84 700.86 228.15 701.4 229.52 701.71L703.04 806.86C704.7 807.22 706.42 807.23 708.08 806.87C709.74 806.52 711.31 805.81 712.68 804.8C714.04 803.79 715.18 802.5 716 801.01C716.83 799.53 717.33 797.88 717.47 796.19L745.22 457.24L482.47 586.11L238.04 384.05Z" />
	<path id="Layer" class="shp6" d="M223.47 696.37L469.47 544.6C471.28 543.5 473.26 542.73 475.34 542.32C477.41 541.92 479.54 541.87 481.63 542.2C483.72 542.53 485.73 543.22 487.58 544.24C489.43 545.26 491.08 546.6 492.47 548.2L712.65 804.99C713.45 805.91 713.84 805.25 712.65 804.99L223.47 696.37C222.07 696.06 222.25 697.1 223.47 696.37Z" />
	<path id="Layer" class="shp15" d="M225.23 696.12L468.69 549.05C470.6 547.9 472.7 547.09 474.89 546.66C477.08 546.23 479.32 546.19 481.53 546.53C483.73 546.88 485.86 547.61 487.81 548.69C489.76 549.77 491.51 551.19 492.97 552.87L711.16 803.8C711.52 804.22 711.74 804.74 711.79 805.29C711.84 805.84 711.71 806.39 711.43 806.86C711.15 807.34 710.73 807.71 710.22 807.93C709.71 808.15 709.15 808.21 708.61 808.09L226.02 700.93C225.51 700.82 225.04 700.56 224.68 700.17C224.31 699.79 224.07 699.31 223.99 698.79C223.9 698.27 223.98 697.74 224.2 697.27C224.42 696.79 224.78 696.39 225.23 696.12Z" />
</svg>